<?xml version="1.0" standalone="no"?>
<!DOCTYPE svg PUBLIC "-//W3C//DTD SVG 20010904//EN"
 "http://www.w3.org/TR/2001/REC-SVG-20010904/DTD/svg10.dtd">
<svg version="1.0" xmlns="http://www.w3.org/2000/svg"
 width="200.000000pt" height="200.000000pt" viewBox="0 0 200.000000 200.000000"
 preserveAspectRatio="xMidYMid meet">
<metadata>
Created by potrace 1.13, written by Peter Selinger 2001-2015
</metadata>
<g transform="translate(0.000000,200.000000) scale(0.100000,-0.100000)"
fill="#000000" stroke="none">
<path d="M759 1755 c-82 -22 -143 -58 -209 -125 -95 -95 -140 -203 -140 -337
0 -58 -2 -64 -24 -73 -78 -29 -118 -191 -80 -320 15 -50 46 -91 87 -115 9 -6
24 -37 32 -69 23 -88 61 -150 137 -221 70 -66 196 -137 268 -150 26 -5 39 -14
50 -38 19 -41 74 -77 117 -77 90 0 157 86 133 170 -28 99 -145 129 -226 58
-34 -30 -36 -30 -77 -18 -155 45 -287 170 -316 299 -9 41 -8 42 25 56 20 8 38
25 44 40 15 39 13 314 -3 345 -7 14 -27 32 -46 40 l-34 15 6 82 c9 146 89 268
216 331 l56 27 225 0 c224 0 225 0 280 -27 137 -67 220 -201 220 -353 0 -60
-1 -62 -35 -78 -20 -9 -40 -28 -45 -43 -13 -33 -13 -305 0 -338 13 -35 59 -56
122 -56 69 0 109 25 138 85 59 121 21 322 -66 355 -22 9 -24 16 -24 69 0 140
-43 246 -139 341 -69 68 -128 103 -214 126 -68 18 -412 18 -478 -1z"/>
</g>
</svg>
